<svg width="1584" height="396" viewBox="0 0 1584 396" fill="none" xmlns="http://www.w3.org/2000/svg">
<rect width="1584" height="396" fill="#F5F5F5"/>
<g id="Awesome banner" clip-path="url(#clip0_0_1)">
<rect width="1584" height="396" fill="url(#paint0_linear_0_1)"/>
<ellipse id="Ellipse 2" cx="323" cy="64" rx="285" ry="288" fill="url(#paint1_linear_0_1)" fill-opacity="0.1"/>
<g id="copyright">
<path d="M75.95 334.52L72.30 334.52L72.30 311.16L77.20 311.16L83.70 330.04Q83.60 329.02 83.50 327.62Q83.41 326.23 83.33 324.79Q83.25 323.35 83.25 322.23L83.25 311.16L86.90 311.16L86.90 334.52L82 334.52L75.57 315.64Q75.63 316.57 75.73 317.88Q75.82 319.19 75.89 320.57Q75.95 321.94 75.95 323.10L75.95 334.52M98.80 334.84Q96.46 334.84 94.67 333.96Q92.88 333.08 91.89 331.53Q90.90 329.98 90.90 327.93Q90.90 325.78 92.13 324.18Q93.36 322.58 95.34 322.17L95.34 322.10Q93.65 321.75 92.61 320.38Q91.57 319 91.57 317.11Q91.57 315.26 92.48 313.85Q93.39 312.44 95.02 311.64Q96.66 310.84 98.80 310.84Q100.94 310.84 102.59 311.64Q104.24 312.44 105.15 313.85Q106.06 315.26 106.06 317.11Q106.06 319 105.01 320.38Q103.95 321.75 102.26 322.10L102.26 322.17Q104.24 322.58 105.47 324.18Q106.70 325.78 106.70 327.93Q106.70 329.98 105.71 331.53Q104.72 333.08 102.93 333.96Q101.14 334.84 98.80 334.84M98.80 320.73Q100.30 320.73 101.23 319.82Q102.16 318.90 102.16 317.46Q102.16 315.99 101.23 315.08Q100.30 314.17 98.80 314.17Q97.30 314.17 96.37 315.08Q95.44 315.99 95.44 317.46Q95.44 318.90 96.37 319.82Q97.30 320.73 98.80 320.73M98.80 331.45Q100.56 331.45 101.68 330.42Q102.80 329.40 102.80 327.74Q102.80 326.04 101.68 325Q100.56 323.96 98.80 323.96Q97.04 323.96 95.92 325Q94.80 326.04 94.80 327.74Q94.80 329.40 95.92 330.42Q97.04 331.45 98.80 331.45M114.35 334.52L110.70 334.52L110.70 311.16L115.60 311.16L122.10 330.04Q122 329.02 121.90 327.62Q121.81 326.23 121.73 324.79Q121.65 323.35 121.65 322.23L121.65 311.16L125.30 311.16L125.30 334.52L120.40 334.52L113.97 315.64Q114.03 316.57 114.13 317.88Q114.22 319.19 114.29 320.57Q114.35 321.94 114.35 323.10" fill="white" fill-opacity="0.9"/>
<path d="M161.48 325.24L151.24 325.24L151.24 322.68L161.48 322.68" fill="white" fill-opacity="0.9"/>
<path d="M195.02 334.84Q191.82 334.84 189.96 333.05Q188.11 331.26 188.11 328.12L188.11 317.56Q188.11 314.42 189.96 312.63Q191.82 310.84 195.02 310.84Q198.15 310.84 200.01 312.65Q201.87 314.46 201.87 317.56L198.99 317.56Q198.99 315.58 197.95 314.50Q196.91 313.43 195.02 313.43Q193.13 313.43 192.06 314.50Q190.99 315.58 190.99 317.56L190.99 328.12Q190.99 330.10 192.06 331.18Q193.13 332.25 195.02 332.25Q196.91 332.25 197.95 331.18Q198.99 330.10 198.99 328.12L201.87 328.12Q201.87 331.22 200.01 333.03Q198.15 334.84 195.02 334.84" fill="white" fill-opacity="0.9"/>
<path d="M213.96 334.84Q210.83 334.84 209 333.02Q207.18 331.19 207.18 327.80L207.18 317.88Q207.18 314.49 209 312.66Q210.83 310.84 213.96 310.84Q217.10 310.84 218.92 312.66Q220.75 314.49 220.75 317.85L220.75 327.80Q220.75 331.19 218.92 333.02Q217.10 334.84 213.96 334.84M213.96 332.25Q215.85 332.25 216.86 331.18Q217.87 330.10 217.87 328.12L217.87 317.56Q217.87 315.58 216.86 314.50Q215.85 313.43 213.96 313.43Q212.11 313.43 211.08 314.50Q210.06 315.58 210.06 317.56L210.06 328.12Q210.06 330.10 211.08 331.18Q212.11 332.25 213.96 332.25" fill="white" fill-opacity="0.9"/>
<path d="M228.65 334.52L225.87 334.52L225.87 311.16L230.12 311.16L233.10 321.27L236.20 311.16L240.46 311.16L240.46 334.52L237.67 334.52L237.67 323.48Q237.67 321.91 237.72 319.88Q237.77 317.85 237.87 315.77Q237.96 313.69 238.09 312.02L234.31 324.09L231.82 324.09L228.20 312.31Q228.46 314.68 228.55 317.50Q228.65 320.31 228.65 323.48" fill="white" fill-opacity="0.9"/>
<path d="M247.85 334.52L245.07 334.52L245.07 311.16L249.32 311.16L252.30 321.27L255.40 311.16L259.66 311.16L259.66 334.52L256.87 334.52L256.87 323.48Q256.87 321.91 256.92 319.88Q256.97 317.85 257.07 315.77Q257.16 313.69 257.29 312.02L253.51 324.09L251.02 324.09L247.40 312.31Q247.66 314.68 247.75 317.50Q247.85 320.31 247.85 323.48" fill="white" fill-opacity="0.9"/>
<path d="M271.56 334.84Q268.30 334.84 266.57 333.03Q264.84 331.22 264.84 328.12L264.84 311.16L267.72 311.16L267.72 328.12Q267.72 330.04 268.67 331.16Q269.61 332.28 271.56 332.28Q273.48 332.28 274.44 331.16Q275.40 330.04 275.40 328.12L275.40 311.16L278.28 311.16L278.28 328.12Q278.28 331.26 276.57 333.05Q274.86 334.84 271.56 334.84" fill="white" fill-opacity="0.9"/>
<path d="M286.83 334.52L284.04 334.52L284.04 311.16L287.88 311.16L295.02 331.16Q294.95 330.36 294.87 329.19Q294.79 328.02 294.75 326.73Q294.70 325.43 294.70 324.28L294.70 311.16L297.48 311.16L297.48 334.52L293.64 334.52L286.54 314.52Q286.60 315.29 286.67 316.46Q286.73 317.62 286.78 318.92Q286.83 320.22 286.83 321.40" fill="white" fill-opacity="0.9"/>
<path d="M316.20 334.52L303.72 334.52L303.72 331.90L308.49 331.90L308.49 313.78L303.72 313.78L303.72 311.16L316.20 311.16L316.20 313.78L311.43 313.78L311.43 331.90L316.20 331.90" fill="white" fill-opacity="0.9"/>
<path d="M330.60 334.52L327.72 334.52L327.72 313.78L321.32 313.78L321.32 311.16L337 311.16L337 313.78L330.60 313.78" fill="white" fill-opacity="0.9"/>
<path d="M349.80 334.52L346.92 334.52L346.92 325.78L339.88 311.16L342.95 311.16L347.50 320.76Q347.88 321.56 348.11 322.12Q348.33 322.68 348.39 322.94Q348.46 322.68 348.70 322.12Q348.94 321.56 349.32 320.76L353.87 311.16L356.84 311.16L349.80 325.78" fill="white" fill-opacity="0.9"/>
<path d="M382.83 334.52L380.04 334.52L380.04 311.16L383.88 311.16L391.02 331.16Q390.95 330.36 390.87 329.19Q390.79 328.02 390.75 326.73Q390.70 325.43 390.70 324.28L390.70 311.16L393.48 311.16L393.48 334.52L389.64 334.52L382.54 314.52Q382.60 315.29 382.67 316.46Q382.73 317.62 382.78 318.92Q382.83 320.22 382.83 321.40" fill="white" fill-opacity="0.9"/>
<path d="M405.96 334.84Q402.83 334.84 401 333.02Q399.18 331.19 399.18 327.80L399.18 317.88Q399.18 314.49 401 312.66Q402.83 310.84 405.96 310.84Q409.10 310.84 410.92 312.66Q412.75 314.49 412.75 317.85L412.75 327.80Q412.75 331.19 410.92 333.02Q409.10 334.84 405.96 334.84M405.96 332.25Q407.85 332.25 408.86 331.18Q409.87 330.10 409.87 328.12L409.87 317.56Q409.87 315.58 408.86 314.50Q407.85 313.43 405.96 313.43Q404.11 313.43 403.08 314.50Q402.06 315.58 402.06 317.56L402.06 328.12Q402.06 330.10 403.08 331.18Q404.11 332.25 405.96 332.25" fill="white" fill-opacity="0.9"/>
<path d="M424.55 334.52L418.51 334.52L418.51 311.16L424.55 311.16Q426.83 311.16 428.47 312.02Q430.12 312.89 431.03 314.46Q431.95 316.02 431.95 318.17L431.95 327.48Q431.95 329.62 431.03 331.21Q430.12 332.79 428.47 333.66Q426.83 334.52 424.55 334.52M421.39 313.72L421.39 331.96L424.55 331.96Q426.67 331.96 427.87 330.78Q429.07 329.59 429.07 327.48L429.07 318.17Q429.07 316.09 427.87 314.90Q426.67 313.72 424.55 313.72" fill="white" fill-opacity="0.9"/>
<path d="M451.40 334.52L437.96 334.52L437.96 311.16L451.40 311.16L451.40 313.78L440.81 313.78L440.81 321.02L450.28 321.02L450.28 323.58L440.81 323.58L440.81 331.90L451.40 331.90" fill="white" fill-opacity="0.9"/>
<path d="M463.69 334.84Q460.30 334.84 458.28 333.05Q456.27 331.26 456.27 328.12L459.15 328.12Q459.15 330.07 460.39 331.18Q461.64 332.28 463.69 332.28Q465.67 332.28 466.86 331.13Q468.04 329.98 468.04 328.12Q468.04 326.71 467.29 325.67Q466.54 324.63 465.13 324.25L461.58 323.26Q459.37 322.62 458.11 320.97Q456.84 319.32 456.84 317.08Q456.84 315.22 457.67 313.82Q458.51 312.41 460.01 311.62Q461.51 310.84 463.47 310.84Q465.45 310.84 466.97 311.62Q468.49 312.41 469.35 313.80Q470.22 315.19 470.22 317.02L467.34 317.02Q467.34 315.42 466.25 314.41Q465.16 313.40 463.47 313.40Q461.77 313.40 460.71 314.41Q459.66 315.42 459.66 317.02Q459.66 318.30 460.35 319.21Q461.03 320.12 462.28 320.47L465.93 321.50Q468.27 322.14 469.56 323.91Q470.86 325.69 470.86 328.12Q470.86 331.19 468.91 333.02Q466.95 334.84 463.69 334.84" fill="white" fill-opacity="0.9"/>
</g>
<path d="M77.39 197.88Q74.99 197.88 73.60 196.54Q72.21 195.19 72.21 192.84L72.21 184.92Q72.21 182.57 73.60 181.22Q74.99 179.88 77.39 179.88Q79.74 179.88 81.14 181.24Q82.53 182.59 82.53 184.92L80.37 184.92Q80.37 183.43 79.59 182.63Q78.81 181.82 77.39 181.82Q75.98 181.82 75.17 182.63Q74.37 183.43 74.37 184.92L74.37 192.84Q74.37 194.33 75.17 195.13Q75.98 195.94 77.39 195.94Q78.81 195.94 79.59 195.13Q80.37 194.33 80.37 192.84L82.53 192.84Q82.53 195.17 81.14 196.52Q79.74 197.88 77.39 197.88" fill="white" fill-opacity="0.7"/>
<path d="M88.77 197.64L86.61 197.64L86.61 180.12L88.77 180.12L88.77 186.96L88.79 186.96Q88.96 185.64 89.87 184.92Q90.78 184.20 92.30 184.20Q94.29 184.20 95.46 185.42Q96.64 186.65 96.64 188.76L96.64 197.64L94.48 197.64L94.48 189.12Q94.48 187.63 93.72 186.83Q92.97 186.02 91.67 186.02Q90.33 186.02 89.55 186.86Q88.77 187.70 88.77 189.24" fill="white" fill-opacity="0.7"/>
<path d="MNaN 197.88Q103.67 197.88 102.24 196.48Q100.82 195.07 100.82 192.60L100.82 189.48Q100.82 187.01 102.24 185.60Q103.67 184.20 NaN 184.20Q107.56 184.20 108.72 184.82Q109.89 185.45 110.54 186.58Q111.18 187.70 111.18 189.24L111.18 191.59L102.93 191.59L102.93 192.84Q102.93 194.30 103.77 195.16Q104.61 196.01 NaN 196.01Q107.20 196.01 107.98 195.54Q108.76 195.07 108.93 194.28L111.09 194.28Q110.87 195.94 109.48 196.91Q108.09 197.88 NaN 197.88M102.93 189.24L102.93 189.91L109.07 189.91L109.07 189.24Q109.07 187.68 108.27 186.83Q107.46 185.98 NaN 185.98Q104.54 185.98 103.73 186.83Q102.93 187.68 102.93 189.24" fill="white" fill-opacity="0.7"/>
<path d="M117.57 197.64L115.41 197.64L115.41 184.44L117.57 184.44L117.57 186.96L117.59 186.96Q117.76 185.64 118.67 184.92Q119.58 184.20 121.10 184.20Q123.09 184.20 124.26 185.42Q125.44 186.65 125.44 188.76L125.44 197.64L123.28 197.64L123.28 189.14Q123.28 187.63 122.52 186.83Q121.77 186.02 120.47 186.02Q119.13 186.02 118.35 186.86Q117.57 187.70 117.57 189.24" fill="white" fill-opacity="0.7"/>
<path d="M131.97 197.64L129.81 197.64L129.81 184.44L131.97 184.44L131.97 186.96L131.99 186.96Q132.16 185.64 133.07 184.92Q133.98 184.20 135.50 184.20Q137.49 184.20 138.66 185.42Q139.84 186.65 139.84 188.76L139.84 197.64L137.68 197.64L137.68 189.14Q137.68 187.63 136.92 186.83Q136.17 186.02 134.87 186.02Q133.53 186.02 132.75 186.86Q131.97 187.70 131.97 189.24" fill="white" fill-opacity="0.7"/>
<path d="M148.05 197.88Q146.01 197.88 144.81 196.74Q143.61 195.60 143.61 193.75Q143.61 192.53 144.16 191.62Q144.71 190.70 145.70 190.19Q146.68 189.67 147.95 189.67L152.03 189.67L152.03 188.64Q152.03 186.07 149.22 186.07Q147.98 186.07 147.21 186.53Q146.44 186.98 146.39 187.80L144.23 187.80Q144.35 186.24 145.68 185.22Q147.02 184.20 149.22 184.20Q151.62 184.20 152.91 185.35Q154.19 186.50 154.19 188.57L154.19 197.64L152.06 197.64L152.06 195.24L152.01 195.24Q151.82 196.46 150.78 197.17Q149.75 197.88 148.05 197.88M148.58 196.06Q150.16 196.06 151.10 195.29Q152.03 194.52 152.03 193.20L152.03 191.35L148.19 191.35Q147.14 191.35 146.48 191.99Q145.82 192.62 145.82 193.68Q145.82 194.78 146.55 195.42Q147.28 196.06 148.58 196.06" fill="white" fill-opacity="0.7"/>
<path d="M169.72 197.64L158.44 197.64L158.44 195.67L163.12 195.67L163.12 186.41L158.92 186.41L158.92 184.44L165.28 184.44L165.28 195.67L169.72 195.67L169.72 197.64M163.96 182.06Q163.17 182.06 162.71 181.66Q162.26 181.25 162.26 180.55Q162.26 179.83 162.71 179.41Q163.17 178.99 163.96 178.99Q164.75 178.99 165.21 179.41Q165.66 179.83 165.66 180.55Q165.66 181.25 165.21 181.66Q164.75 182.06 163.96 182.06" fill="white" fill-opacity="0.7"/>
<path d="M192.59 197.88Q190.19 197.88 188.80 196.54Q187.41 195.19 187.41 192.84L187.41 184.92Q187.41 182.57 188.80 181.22Q190.19 179.88 192.59 179.88Q194.94 179.88 196.34 181.24Q197.73 182.59 197.73 184.92L195.57 184.92Q195.57 183.43 194.79 182.63Q194.01 181.82 192.59 181.82Q191.18 181.82 190.37 182.63Q189.57 183.43 189.57 184.92L189.57 192.84Q189.57 194.33 190.37 195.13Q191.18 195.94 192.59 195.94Q194.01 195.94 194.79 195.13Q195.57 194.33 195.57 192.84L197.73 192.84Q197.73 195.17 196.34 196.52Q194.94 197.88 192.59 197.88" fill="white" fill-opacity="0.7"/>
<path d="M206.80 197.83Q204.42 197.83 203.02 196.44Q201.62 195.05 201.62 192.55L201.62 189.53Q201.62 187.01 203.01 185.63Q204.40 184.25 206.80 184.25Q209.20 184.25 210.59 185.63Q211.98 187.01 211.98 189.53L211.98 192.55Q211.98 195.05 210.58 196.44Q209.18 197.83 206.80 197.83M206.80 195.91Q208.22 195.91 209.02 195.12Q209.82 194.33 209.82 192.79L209.82 189.29Q209.82 187.75 209.02 186.96Q208.22 186.17 206.80 186.17Q205.41 186.17 204.59 186.96Q203.78 187.75 203.78 189.29L203.78 192.79Q203.78 194.33 204.59 195.12Q205.41 195.91 206.80 195.91" fill="white" fill-opacity="0.7"/>
<path d="M218.85 197.64L216.69 197.64L216.69 184.44L218.85 184.44L218.85 186.96L218.90 186.96Q219.06 185.69 219.98 184.94Q220.89 184.20 222.42 184.20Q224.49 184.20 225.60 185.44Q226.72 186.67 226.72 188.95L226.72 190.08L224.56 190.08L224.56 188.95Q224.56 186.07 221.75 186.07Q220.34 186.07 219.59 186.89Q218.85 187.70 218.85 189.24" fill="white" fill-opacity="0.7"/>
<path d="M232.77 201.96L230.61 201.96L230.61 184.44L232.77 184.44L232.77 186.96L232.79 186.96Q232.96 185.66 233.92 184.93Q234.88 184.20 236.37 184.20Q238.36 184.20 239.54 185.51Q240.71 186.82 240.71 189.10L240.71 192.96Q240.71 195.24 239.54 196.56Q238.36 197.88 236.37 197.88Q234.88 197.88 233.92 197.14Q232.96 196.39 232.79 195.12L232.72 195.12L232.77 198.12L232.77 201.96M235.65 196.01Q237.02 196.01 237.78 195.29Q238.55 194.57 238.55 192.96L238.55 189.12Q238.55 187.49 237.78 186.78Q237.02 186.07 235.65 186.07Q234.33 186.07 233.55 186.91Q232.77 187.75 232.77 189.24L232.77 192.84Q232.77 194.33 233.55 195.17Q234.33 196.01 235.65 196.01" fill="white" fill-opacity="0.7"/>
<path d="MNaN 197.83Q247.62 197.83 246.22 196.44Q244.82 195.05 244.82 192.55L244.82 189.53Q244.82 187.01 246.21 185.63Q247.60 184.25 NaN 184.25Q252.40 184.25 253.79 185.63Q255.18 187.01 255.18 189.53L255.18 192.55Q255.18 195.05 253.78 196.44Q252.38 197.83 NaN 197.83MNaN 195.91Q251.42 195.91 252.22 195.12Q253.02 194.33 253.02 192.79L253.02 189.29Q253.02 187.75 252.22 186.96Q251.42 186.17 NaN 186.17Q248.61 186.17 247.79 186.96Q246.98 187.75 246.98 189.29L246.98 192.79Q246.98 194.33 247.79 195.12Q248.61 195.91 NaN 195.91" fill="white" fill-opacity="0.7"/>
<path d="M262.05 197.64L259.89 197.64L259.89 184.44L262.05 184.44L262.05 186.96L262.10 186.96Q262.26 185.69 263.18 184.94Q264.09 184.20 265.62 184.20Q267.69 184.20 268.80 185.44Q269.92 186.67 269.92 188.95L269.92 190.08L267.76 190.08L267.76 188.95Q267.76 186.07 264.95 186.07Q263.54 186.07 262.79 186.89Q262.05 187.70 262.05 189.24" fill="white" fill-opacity="0.7"/>
<path d="M277.65 197.88Q275.61 197.88 274.41 196.74Q273.21 195.60 273.21 193.75Q273.21 192.53 273.76 191.62Q274.31 190.70 275.30 190.19Q276.28 189.67 277.55 189.67L281.63 189.67L281.63 188.64Q281.63 186.07 278.82 186.07Q277.58 186.07 276.81 186.53Q276.04 186.98 275.99 187.80L273.83 187.80Q273.95 186.24 275.28 185.22Q276.62 184.20 278.82 184.20Q281.22 184.20 282.51 185.35Q283.79 186.50 283.79 188.57L283.79 197.64L281.66 197.64L281.66 195.24L281.61 195.24Q281.42 196.46 280.38 197.17Q279.35 197.88 277.65 197.88M278.18 196.06Q279.76 196.06 280.70 195.29Q281.63 194.52 281.63 193.20L281.63 191.35L277.79 191.35Q276.74 191.35 276.08 191.99Q275.42 192.62 275.42 193.68Q275.42 194.78 276.15 195.42Q276.88 196.06 278.18 196.06" fill="white" fill-opacity="0.7"/>
<path d="M298.36 197.64L294.52 197.64Q292.89 197.64 291.90 196.69Q290.92 195.74 290.92 194.16L290.92 186.41L287.13 186.41L287.13 184.44L290.92 184.44L290.92 180.72L293.08 180.72L293.08 184.44L298.48 184.44L298.48 186.41L293.08 186.41L293.08 194.16Q293.08 194.83 293.48 195.25Q293.87 195.67 294.52 195.67L298.36 195.67" fill="white" fill-opacity="0.7"/>
<path d="M313.72 197.64L302.44 197.64L302.44 195.67L307.12 195.67L307.12 186.41L302.92 186.41L302.92 184.44L309.28 184.44L309.28 195.67L313.72 195.67L313.72 197.64M307.96 182.06Q307.17 182.06 306.71 181.66Q306.26 181.25 306.26 180.55Q306.26 179.83 306.71 179.41Q307.17 178.99 307.96 178.99Q308.75 178.99 309.21 179.41Q309.66 179.83 309.66 180.55Q309.66 181.25 309.21 181.66Q308.75 182.06 307.96 182.06" fill="white" fill-opacity="0.7"/>
<path d="M322 197.83Q319.62 197.83 318.22 196.44Q316.82 195.05 316.82 192.55L316.82 189.53Q316.82 187.01 318.21 185.63Q319.60 184.25 322 184.25Q324.40 184.25 325.79 185.63Q327.18 187.01 327.18 189.53L327.18 192.55Q327.18 195.05 325.78 196.44Q324.38 197.83 322 197.83M322 195.91Q323.42 195.91 324.22 195.12Q325.02 194.33 325.02 192.79L325.02 189.29Q325.02 187.75 324.22 186.96Q323.42 186.17 322 186.17Q320.61 186.17 319.79 186.96Q318.98 187.75 318.98 189.29L318.98 192.79Q318.98 194.33 319.79 195.12Q320.61 195.91 322 195.91" fill="white" fill-opacity="0.7"/>
<path d="M333.57 197.64L331.41 197.64L331.41 184.44L333.57 184.44L333.57 186.96L333.59 186.96Q333.76 185.64 334.67 184.92Q335.58 184.20 337.10 184.20Q339.09 184.20 340.26 185.42Q341.44 186.65 341.44 188.76L341.44 197.64L339.28 197.64L339.28 189.14Q339.28 187.63 338.52 186.83Q337.77 186.02 336.47 186.02Q335.13 186.02 334.35 186.86Q333.57 187.70 333.57 189.24" fill="white" fill-opacity="0.7"/>
<path d="M365.97 197.88Q364.48 197.88 363.52 197.15Q362.56 196.42 362.39 195.12L362.37 195.12L362.37 197.64L360.21 197.64L360.21 180.12L362.37 180.12L362.37 183.96L362.32 186.96L362.34 186.96Q362.54 185.69 363.51 184.94Q364.48 184.20 365.97 184.20Q367.96 184.20 369.14 185.52Q370.31 186.84 370.31 189.12L370.31 192.98Q370.31 195.24 369.14 196.56Q367.96 197.88 365.97 197.88M365.25 196.01Q366.62 196.01 367.38 195.29Q368.15 194.57 368.15 192.96L368.15 189.12Q368.15 187.49 367.38 186.78Q366.62 186.07 365.25 186.07Q363.93 186.07 363.15 186.91Q362.37 187.75 362.37 189.24L362.37 192.84Q362.37 194.33 363.15 195.17Q363.93 196.01 365.25 196.01" fill="white" fill-opacity="0.7"/>
<path d="M385.72 197.64L374.44 197.64L374.44 195.67L379.12 195.67L379.12 186.41L374.92 186.41L374.92 184.44L381.28 184.44L381.28 195.67L385.72 195.67L385.72 197.64M379.96 182.06Q379.17 182.06 378.71 181.66Q378.26 181.25 378.26 180.55Q378.26 179.83 378.71 179.41Q379.17 178.99 379.96 178.99Q380.75 178.99 381.21 179.41Q381.66 179.83 381.66 180.55Q381.66 181.25 381.21 181.66Q380.75 182.06 379.96 182.06" fill="white" fill-opacity="0.7"/>
<path d="M391.65 197.64L389.49 197.64L389.49 184.44L391.65 184.44L391.65 186.96L391.70 186.96Q391.86 185.69 392.78 184.94Q393.69 184.20 395.22 184.20Q397.29 184.20 398.40 185.44Q399.52 186.67 399.52 188.95L399.52 190.08L397.36 190.08L397.36 188.95Q397.36 186.07 394.55 186.07Q393.14 186.07 392.39 186.89Q391.65 187.70 391.65 189.24" fill="white" fill-opacity="0.7"/>
<path d="M413.56 197.64L409.72 197.64Q408.09 197.64 407.10 196.69Q406.12 195.74 406.12 194.16L406.12 186.41L402.33 186.41L402.33 184.44L406.12 184.44L406.12 180.72L408.28 180.72L408.28 184.44L413.68 184.44L413.68 186.41L408.28 186.41L408.28 194.16Q408.28 194.83 408.68 195.25Q409.07 195.67 409.72 195.67L413.56 195.67" fill="white" fill-opacity="0.7"/>
<path d="M419.97 197.64L417.81 197.64L417.81 180.12L419.97 180.12L419.97 186.96L419.99 186.96Q420.16 185.64 421.07 184.92Q421.98 184.20 423.50 184.20Q425.49 184.20 426.66 185.42Q427.84 186.65 427.84 188.76L427.84 197.64L425.68 197.64L425.68 189.12Q425.68 187.63 424.92 186.83Q424.17 186.02 422.87 186.02Q421.53 186.02 420.75 186.86Q419.97 187.70 419.97 189.24" fill="white" fill-opacity="0.7"/>
<path d="M434.08 200.28L431.80 200.28L440.32 177.72L442.60 177.72" fill="white" fill-opacity="0.7"/>
<path d="M450.83 197.88Q448.86 197.88 447.68 196.56Q446.49 195.24 446.49 192.98L446.49 189.12Q446.49 186.84 447.66 185.52Q448.84 184.20 450.83 184.20Q452.32 184.20 453.29 184.94Q454.26 185.69 454.46 186.96L454.48 186.96L454.43 183.96L454.43 180.12L456.59 180.12L456.59 197.64L454.43 197.64L454.43 195.12L454.41 195.12Q454.24 196.42 453.28 197.15Q452.32 197.88 450.83 197.88M451.55 196.01Q452.90 196.01 453.66 195.17Q454.43 194.33 454.43 192.84L454.43 189.24Q454.43 187.75 453.66 186.91Q452.90 186.07 451.55 186.07Q450.18 186.07 449.42 186.78Q448.65 187.49 448.65 189.12L448.65 192.96Q448.65 194.57 449.42 195.29Q450.18 196.01 451.55 196.01" fill="white" fill-opacity="0.7"/>
<path d="M466 197.88Q463.67 197.88 462.24 196.48Q460.82 195.07 460.82 192.60L460.82 189.48Q460.82 187.01 462.24 185.60Q463.67 184.20 466 184.20Q467.56 184.20 468.72 184.82Q469.89 185.45 470.54 186.58Q471.18 187.70 471.18 189.24L471.18 191.59L462.93 191.59L462.93 192.84Q462.93 194.30 463.77 195.16Q464.61 196.01 466 196.01Q467.20 196.01 467.98 195.54Q468.76 195.07 468.93 194.28L471.09 194.28Q470.87 195.94 469.48 196.91Q468.09 197.88 466 197.88M462.93 189.24L462.93 189.91L469.07 189.91L469.07 189.24Q469.07 187.68 468.27 186.83Q467.46 185.98 466 185.98Q464.54 185.98 463.73 186.83Q462.93 187.68 462.93 189.24" fill="white" fill-opacity="0.7"/>
<path d="M479.25 197.88Q477.21 197.88 476.01 196.74Q474.81 195.60 474.81 193.75Q474.81 192.53 475.36 191.62Q475.91 190.70 476.90 190.19Q477.88 189.67 479.15 189.67L483.23 189.67L483.23 188.64Q483.23 186.07 480.42 186.07Q479.18 186.07 478.41 186.53Q477.64 186.98 477.59 187.80L475.43 187.80Q475.55 186.24 476.88 185.22Q478.22 184.20 480.42 184.20Q482.82 184.20 484.11 185.35Q485.39 186.50 485.39 188.57L485.39 197.64L483.26 197.64L483.26 195.24L483.21 195.24Q483.02 196.46 481.98 197.17Q480.95 197.88 479.25 197.88M479.78 196.06Q481.36 196.06 482.30 195.29Q483.23 194.52 483.23 193.20L483.23 191.35L479.39 191.35Q478.34 191.35 477.68 191.99Q477.02 192.62 477.02 193.68Q477.02 194.78 477.75 195.42Q478.48 196.06 479.78 196.06" fill="white" fill-opacity="0.7"/>
<path d="M499.96 197.64L496.12 197.64Q494.49 197.64 493.50 196.69Q492.52 195.74 492.52 194.16L492.52 186.41L488.73 186.41L488.73 184.44L492.52 184.44L492.52 180.72L494.68 180.72L494.68 184.44L500.08 184.44L500.08 186.41L494.68 186.41L494.68 194.16Q494.68 194.83 495.08 195.25Q495.47 195.67 496.12 195.67L499.96 195.67" fill="white" fill-opacity="0.7"/>
<path d="M506.37 197.64L504.21 197.64L504.21 180.12L506.37 180.12L506.37 186.96L506.39 186.96Q506.56 185.64 507.47 184.92Q508.38 184.20 509.90 184.20Q511.89 184.20 513.06 185.42Q514.24 186.65 514.24 188.76L514.24 197.64L512.08 197.64L512.08 189.12Q512.08 187.63 511.32 186.83Q510.57 186.02 509.27 186.02Q507.93 186.02 507.15 186.86Q506.37 187.70 506.37 189.24" fill="white" fill-opacity="0.7"/>
<path d="M538.19 197.88Q535.79 197.88 534.35 196.54Q532.91 195.19 532.91 192.84L532.91 189.24Q532.91 186.89 534.35 185.54Q535.79 184.20 538.19 184.20Q540.47 184.20 541.88 185.42Q543.28 186.65 543.35 188.76L541.19 188.76Q541.12 187.49 540.33 186.80Q539.54 186.12 538.19 186.12Q536.78 186.12 535.92 186.92Q535.07 187.73 535.07 189.22L535.07 192.84Q535.07 194.33 535.92 195.14Q536.78 195.96 538.19 195.96Q539.54 195.96 540.33 195.26Q541.12 194.57 541.19 193.32L543.35 193.32Q543.28 195.43 541.88 196.66Q540.47 197.88 538.19 197.88" fill="white" fill-opacity="0.7"/>
<path d="M552.40 197.88Q550.07 197.88 548.64 196.48Q547.22 195.07 547.22 192.60L547.22 189.48Q547.22 187.01 548.64 185.60Q550.07 184.20 552.40 184.20Q553.96 184.20 555.12 184.82Q556.29 185.45 556.94 186.58Q557.58 187.70 557.58 189.24L557.58 191.59L549.33 191.59L549.33 192.84Q549.33 194.30 550.17 195.16Q551.01 196.01 552.40 196.01Q553.60 196.01 554.38 195.54Q555.16 195.07 555.33 194.28L557.49 194.28Q557.27 195.94 555.88 196.91Q554.49 197.88 552.40 197.88M549.33 189.24L549.33 189.91L555.47 189.91L555.47 189.24Q555.47 187.68 554.67 186.83Q553.86 185.98 552.40 185.98Q550.94 185.98 550.13 186.83Q549.33 187.68 549.33 189.24" fill="white" fill-opacity="0.7"/>
<path d="M564.45 197.64L562.29 197.64L562.29 184.44L564.45 184.44L564.45 186.96L564.50 186.96Q564.66 185.69 565.58 184.94Q566.49 184.20 568.02 184.20Q570.09 184.20 571.20 185.44Q572.32 186.67 572.32 188.95L572.32 190.08L570.16 190.08L570.16 188.95Q570.16 186.07 567.35 186.07Q565.94 186.07 565.19 186.89Q564.45 187.70 564.45 189.24" fill="white" fill-opacity="0.7"/>
<path d="M586.36 197.64L582.52 197.64Q580.89 197.64 579.90 196.69Q578.92 195.74 578.92 194.16L578.92 186.41L575.13 186.41L575.13 184.44L578.92 184.44L578.92 180.72L581.08 180.72L581.08 184.44L586.48 184.44L586.48 186.41L581.08 186.41L581.08 194.16Q581.08 194.83 581.48 195.25Q581.87 195.67 582.52 195.67L586.36 195.67" fill="white" fill-opacity="0.7"/>
<path d="M601.72 197.64L590.44 197.64L590.44 195.67L595.12 195.67L595.12 186.41L590.92 186.41L590.92 184.44L597.28 184.44L597.28 195.67L601.72 195.67L601.72 197.64M595.96 182.06Q595.17 182.06 594.71 181.66Q594.26 181.25 594.26 180.55Q594.26 179.83 594.71 179.41Q595.17 178.99 595.96 178.99Q596.75 178.99 597.21 179.41Q597.66 179.83 597.66 180.55Q597.66 181.25 597.21 181.66Q596.75 182.06 595.96 182.06" fill="white" fill-opacity="0.7"/>
<path d="M610.12 197.64L607.96 197.64L607.96 188.21L604.12 188.21L604.12 186.24L607.96 186.24L607.96 183.48Q607.96 181.92 608.94 181.02Q609.93 180.12 611.66 180.12L615.52 180.12L615.52 182.09L611.66 182.09Q610.12 182.09 610.12 183.48L610.12 186.24L615.52 186.24L615.52 188.21L610.12 188.21" fill="white" fill-opacity="0.7"/>
<path d="M630.52 197.64L619.24 197.64L619.24 195.67L623.92 195.67L623.92 186.41L619.72 186.41L619.72 184.44L626.08 184.44L626.08 195.67L630.52 195.67L630.52 197.64M624.76 182.06Q623.97 182.06 623.51 181.66Q623.06 181.25 623.06 180.55Q623.06 179.83 623.51 179.41Q623.97 178.99 624.76 178.99Q625.55 178.99 626.01 179.41Q626.46 179.83 626.46 180.55Q626.46 181.25 626.01 181.66Q625.55 182.06 624.76 182.06" fill="white" fill-opacity="0.7"/>
<path d="M638.99 197.88Q636.59 197.88 635.15 196.54Q633.71 195.19 633.71 192.84L633.71 189.24Q633.71 186.89 635.15 185.54Q636.59 184.20 638.99 184.20Q641.27 184.20 642.68 185.42Q644.08 186.65 644.15 188.76L641.99 188.76Q641.92 187.49 641.13 186.80Q640.34 186.12 638.99 186.12Q637.58 186.12 636.72 186.92Q635.87 187.73 635.87 189.22L635.87 192.84Q635.87 194.33 636.72 195.14Q637.58 195.96 638.99 195.96Q640.34 195.96 641.13 195.26Q641.92 194.57 641.99 193.32L644.15 193.32Q644.08 195.43 642.68 196.66Q641.27 197.88 638.99 197.88" fill="white" fill-opacity="0.7"/>
<path d="M652.05 197.88Q650.01 197.88 648.81 196.74Q647.61 195.60 647.61 193.75Q647.61 192.53 648.16 191.62Q648.71 190.70 649.70 190.19Q650.68 189.67 651.95 189.67L656.03 189.67L656.03 188.64Q656.03 186.07 653.22 186.07Q651.98 186.07 651.21 186.53Q650.44 186.98 650.39 187.80L648.23 187.80Q648.35 186.24 649.68 185.22Q651.02 184.20 653.22 184.20Q655.62 184.20 656.91 185.35Q658.19 186.50 658.19 188.57L658.19 197.64L656.06 197.64L656.06 195.24L656.01 195.24Q655.82 196.46 654.78 197.17Q653.75 197.88 652.05 197.88M652.58 196.06Q654.16 196.06 655.10 195.29Q656.03 194.52 656.03 193.20L656.03 191.35L652.19 191.35Q651.14 191.35 650.48 191.99Q649.82 192.62 649.82 193.68Q649.82 194.78 650.55 195.42Q651.28 196.06 652.58 196.06" fill="white" fill-opacity="0.7"/>
<path d="M672.76 197.64L668.92 197.64Q667.29 197.64 666.30 196.69Q665.32 195.74 665.32 194.16L665.32 186.41L661.53 186.41L661.53 184.44L665.32 184.44L665.32 180.72L667.48 180.72L667.48 184.44L672.88 184.44L672.88 186.41L667.48 186.41L667.48 194.16Q667.48 194.83 667.88 195.25Q668.27 195.67 668.92 195.67L672.76 195.67" fill="white" fill-opacity="0.7"/>
<path d="M682 197.88Q679.67 197.88 678.24 196.48Q676.82 195.07 676.82 192.60L676.82 189.48Q676.82 187.01 678.24 185.60Q679.67 184.20 682 184.20Q683.56 184.20 684.72 184.82Q685.89 185.45 686.54 186.58Q687.18 187.70 687.18 189.24L687.18 191.59L678.93 191.59L678.93 192.84Q678.93 194.30 679.77 195.16Q680.61 196.01 682 196.01Q683.20 196.01 683.98 195.54Q684.76 195.07 684.93 194.28L687.09 194.28Q686.87 195.94 685.48 196.91Q684.09 197.88 682 197.88M678.93 189.24L678.93 189.91L685.07 189.91L685.07 189.24Q685.07 187.68 684.27 186.83Q683.46 185.98 682 185.98Q680.54 185.98 679.73 186.83Q678.93 187.68 678.93 189.24" fill="white" fill-opacity="0.7"/>
<path d="M696.93 197.83L695.87 197.83Q693.66 197.83 692.45 196.84Q691.24 195.84 691.24 194.02L693.40 194.02Q693.40 194.93 694.05 195.44Q694.70 195.96 695.87 195.96L696.93 195.96Q698.13 195.96 698.79 195.43Q699.45 194.90 699.45 193.94Q699.45 192.24 697.89 192.02L694.24 191.50Q692.90 191.30 692.15 190.38Q691.41 189.46 691.41 187.94Q691.41 186.22 692.60 185.23Q693.78 184.25 695.87 184.25L696.93 184.25Q698.85 184.25 700.06 185.20Q701.27 186.14 701.37 187.68L699.18 187.68Q699.14 186.98 698.52 186.53Q697.91 186.07 696.93 186.07L695.87 186.07Q694.77 186.07 694.14 186.58Q693.52 187.08 693.52 187.94Q693.52 189.34 694.79 189.53L698.20 190.01Q701.56 190.49 701.56 193.94Q701.56 195.79 700.35 196.81Q699.14 197.83 696.93 197.83" fill="white" fill-opacity="0.7"/>
<path d="M729.64 198.43L729.64 200.52Q726.21 199.75 724.32 197.30Q722.44 194.86 722.44 191.16L722.44 186.84Q722.44 183.14 724.32 180.70Q726.21 178.25 729.64 177.48L729.64 179.57Q728.10 179.93 726.96 180.94Q725.82 181.94 725.21 183.44Q724.60 184.94 724.60 186.84L724.60 191.16Q724.60 193.03 725.21 194.54Q725.82 196.06 726.96 197.06Q728.10 198.07 729.64 198.43" fill="white" fill-opacity="0.7"/>
<path d="M745.36 197.64L734.56 197.64L734.56 195.67L739.31 195.67L739.31 181.99L734.56 185.54L734.56 183.07L738.52 180.12L741.47 180.12L741.47 195.67L745.36 195.67" fill="white" fill-opacity="0.7"/>
<path d="M754 197.64L751.48 197.64L755.80 190.13L755.73 190.08Q755.49 190.46 754.84 190.69Q754.19 190.92 753.42 190.92Q751.91 190.92 750.77 190.24Q749.63 189.55 748.98 188.35Q748.34 187.15 748.34 185.57Q748.34 183.86 749.06 182.59Q749.78 181.32 751.05 180.60Q752.32 179.88 753.98 179.88Q755.68 179.88 756.95 180.59Q758.22 181.30 758.94 182.56Q759.66 183.82 759.66 185.47Q759.66 186.62 759.23 187.84Q758.80 189.05 758.06 190.37L754 197.64M754 189.24Q755.56 189.24 756.53 188.21Q757.50 187.18 757.50 185.52Q757.50 183.86 756.53 182.83Q755.56 181.80 754 181.80Q752.44 181.80 751.47 182.83Q750.50 183.86 750.50 185.52Q750.50 187.18 751.47 188.21Q752.44 189.24 754 189.24" fill="white" fill-opacity="0.7"/>
<path d="M768.14 197.88Q765.71 197.88 764.30 196.52Q762.88 195.17 762.88 192.84L765.04 192.84Q765.04 194.28 765.88 195.12Q766.72 195.96 768.16 195.96Q769.60 195.96 770.44 195.12Q771.28 194.28 771.28 192.84L771.28 191.64Q771.28 190.20 770.44 189.36Q769.60 188.52 768.16 188.52L766.26 188.52L766.26 186.65L770.56 182.09L763.36 182.09L763.36 180.12L773.01 180.12L773.01 182.14L768.78 186.62Q770.94 186.79 772.19 188.12Q773.44 189.46 773.44 191.64L773.44 192.84Q773.44 195.17 772.01 196.52Q770.58 197.88 768.14 197.88" fill="white" fill-opacity="0.7"/>
<path d="M787.36 197.64L785.20 197.64L785.20 193.80L777.28 193.80L777.28 190.42L783.66 180.12L786.11 180.12L779.44 190.90L779.44 191.83L785.20 191.83L785.20 187.56L787.36 187.56" fill="white" fill-opacity="0.7"/>
<path d="M801.04 190.68L793.36 190.68L793.36 188.76L801.04 188.76" fill="white" fill-opacity="0.7"/>
<path d="M808.77 201.96L806.61 201.96L806.61 184.44L808.77 184.44L808.77 186.96L808.79 186.96Q808.96 185.66 809.92 184.93Q810.88 184.20 812.37 184.20Q814.36 184.20 815.54 185.51Q816.71 186.82 816.71 189.10L816.71 192.96Q816.71 195.24 815.54 196.56Q814.36 197.88 812.37 197.88Q810.88 197.88 809.92 197.14Q808.96 196.39 808.79 195.12L808.72 195.12L808.77 198.12L808.77 201.96M811.65 196.01Q813.02 196.01 813.78 195.29Q814.55 194.57 814.55 192.96L814.55 189.12Q814.55 187.49 813.78 186.78Q813.02 186.07 811.65 186.07Q810.33 186.07 809.55 186.91Q808.77 187.75 808.77 189.24L808.77 192.84Q808.77 194.33 809.55 195.17Q810.33 196.01 811.65 196.01" fill="white" fill-opacity="0.7"/>
<path d="M823.65 197.64L821.49 197.64L821.49 184.44L823.65 184.44L823.65 186.96L823.70 186.96Q823.86 185.69 824.78 184.94Q825.69 184.20 827.22 184.20Q829.29 184.20 830.40 185.44Q831.52 186.67 831.52 188.95L831.52 190.08L829.36 190.08L829.36 188.95Q829.36 186.07 826.55 186.07Q825.14 186.07 824.39 186.89Q823.65 187.70 823.65 189.24" fill="white" fill-opacity="0.7"/>
<path d="M840.40 197.88Q838.07 197.88 836.64 196.48Q835.22 195.07 835.22 192.60L835.22 189.48Q835.22 187.01 836.64 185.60Q838.07 184.20 840.40 184.20Q841.96 184.20 843.12 184.82Q844.29 185.45 844.94 186.58Q845.58 187.70 845.58 189.24L845.58 191.59L837.33 191.59L837.33 192.84Q837.33 194.30 838.17 195.16Q839.01 196.01 840.40 196.01Q841.60 196.01 842.38 195.54Q843.16 195.07 843.33 194.28L845.49 194.28Q845.27 195.94 843.88 196.91Q842.49 197.88 840.40 197.88M837.33 189.24L837.33 189.91L843.47 189.91L843.47 189.24Q843.47 187.68 842.67 186.83Q841.86 185.98 840.40 185.98Q838.94 185.98 838.13 186.83Q837.33 187.68 837.33 189.24" fill="white" fill-opacity="0.7"/>
<path d="M855.33 197.83L854.27 197.83Q852.06 197.83 850.85 196.84Q849.64 195.84 849.64 194.02L851.80 194.02Q851.80 194.93 852.45 195.44Q853.10 195.96 854.27 195.96L855.33 195.96Q856.53 195.96 857.19 195.43Q857.85 194.90 857.85 193.94Q857.85 192.24 856.29 192.02L852.64 191.50Q851.30 191.30 850.55 190.38Q849.81 189.46 849.81 187.94Q849.81 186.22 851 185.23Q852.18 184.25 854.27 184.25L855.33 184.25Q857.25 184.25 858.46 185.20Q859.67 186.14 859.77 187.68L857.58 187.68Q857.54 186.98 856.92 186.53Q856.31 186.07 855.33 186.07L854.27 186.07Q853.17 186.07 852.54 186.58Q851.92 187.08 851.92 187.94Q851.92 189.34 853.19 189.53L856.60 190.01Q859.96 190.49 859.96 193.94Q859.96 195.79 858.75 196.81Q857.54 197.83 855.33 197.83" fill="white" fill-opacity="0.7"/>
<path d="M869.20 197.88Q866.87 197.88 865.44 196.48Q864.02 195.07 864.02 192.60L864.02 189.48Q864.02 187.01 865.44 185.60Q866.87 184.20 869.20 184.20Q870.76 184.20 871.92 184.82Q873.09 185.45 873.74 186.58Q874.38 187.70 874.38 189.24L874.38 191.59L866.13 191.59L866.13 192.84Q866.13 194.30 866.97 195.16Q867.81 196.01 869.20 196.01Q870.40 196.01 871.18 195.54Q871.96 195.07 872.13 194.28L874.29 194.28Q874.07 195.94 872.68 196.91Q871.29 197.88 869.20 197.88M866.13 189.24L866.13 189.91L872.27 189.91L872.27 189.24Q872.27 187.68 871.47 186.83Q870.66 185.98 869.20 185.98Q867.74 185.98 866.93 186.83Q866.13 187.68 866.13 189.24" fill="white" fill-opacity="0.7"/>
<path d="M880.77 197.64L878.61 197.64L878.61 184.44L880.77 184.44L880.77 186.96L880.79 186.96Q880.96 185.64 881.87 184.92Q882.78 184.20 884.30 184.20Q886.29 184.20 887.46 185.42Q888.64 186.65 888.64 188.76L888.64 197.64L886.48 197.64L886.48 189.14Q886.48 187.63 885.72 186.83Q884.97 186.02 883.67 186.02Q882.33 186.02 881.55 186.86Q880.77 187.70 880.77 189.24" fill="white" fill-opacity="0.7"/>
<path d="M903.16 197.64L899.32 197.64Q897.69 197.64 896.70 196.69Q895.72 195.74 895.72 194.16L895.72 186.41L891.93 186.41L891.93 184.44L895.72 184.44L895.72 180.72L897.88 180.72L897.88 184.44L903.28 184.44L903.28 186.41L897.88 186.41L897.88 194.16Q897.88 194.83 898.28 195.25Q898.67 195.67 899.32 195.67L903.16 195.67" fill="white" fill-opacity="0.7"/>
<path d="M907.96 200.52L907.96 198.43Q909.52 198.07 910.65 197.06Q911.78 196.06 912.39 194.54Q913 193.03 913 191.16L913 186.84Q913 184.94 912.39 183.44Q911.78 181.94 910.65 180.94Q909.52 179.93 907.96 179.57L907.96 177.48Q911.39 178.25 913.28 180.70Q915.16 183.14 915.16 186.84L915.16 191.16Q915.16 194.86 913.28 197.30Q911.39 199.75 907.96 200.52" fill="white" fill-opacity="0.7"/>
<path d="M940.43 197.88Q938.46 197.88 937.28 196.56Q936.09 195.24 936.09 192.98L936.09 189.12Q936.09 186.84 937.26 185.52Q938.44 184.20 940.43 184.20Q941.92 184.20 942.89 184.94Q943.86 185.69 944.06 186.96L944.08 186.96L944.03 183.96L944.03 180.12L946.19 180.12L946.19 197.64L944.03 197.64L944.03 195.12L944.01 195.12Q943.84 196.42 942.88 197.15Q941.92 197.88 940.43 197.88M941.15 196.01Q942.50 196.01 943.26 195.17Q944.03 194.33 944.03 192.84L944.03 189.24Q944.03 187.75 943.26 186.91Q942.50 186.07 941.15 186.07Q939.78 186.07 939.02 186.78Q938.25 187.49 938.25 189.12L938.25 192.96Q938.25 194.57 939.02 195.29Q939.78 196.01 941.15 196.01" fill="white" fill-opacity="0.7"/>
<path d="M955.60 197.83Q953.22 197.83 951.82 196.44Q950.42 195.05 950.42 192.55L950.42 189.53Q950.42 187.01 951.81 185.63Q953.20 184.25 955.60 184.25Q958 184.25 959.39 185.63Q960.78 187.01 960.78 189.53L960.78 192.55Q960.78 195.05 959.38 196.44Q957.98 197.83 955.60 197.83M955.60 195.91Q957.02 195.91 957.82 195.12Q958.62 194.33 958.62 192.79L958.62 189.29Q958.62 187.75 957.82 186.96Q957.02 186.17 955.60 186.17Q954.21 186.17 953.39 186.96Q952.58 187.75 952.58 189.29L952.58 192.79Q952.58 194.33 953.39 195.12Q954.21 195.91 955.60 195.91" fill="white" fill-opacity="0.7"/>
<path d="M968.08 197.64L965.70 197.64L963.54 184.44L965.42 184.44L966.76 193.75Q966.83 194.28 966.90 194.92Q966.98 195.55 967 195.96Q967.05 195.55 967.11 194.92Q967.17 194.28 967.26 193.75L968.92 184.44L971.08 184.44L972.74 193.75Q972.83 194.28 972.92 194.92Q973 195.55 973.02 195.96Q973.07 195.55 973.14 194.92Q973.22 194.28 973.29 193.75L974.68 184.44L976.46 184.44L974.20 197.64L971.82 197.64L970.31 188.52Q970.22 187.85 970.13 187.09Q970.05 186.34 970 185.93Q969.98 186.34 969.88 187.09Q969.78 187.85 969.66 188.52" fill="white" fill-opacity="0.7"/>
<path d="M981.57 197.64L979.41 197.64L979.41 184.44L981.57 184.44L981.57 186.96L981.59 186.96Q981.76 185.64 982.67 184.92Q983.58 184.20 985.10 184.20Q987.09 184.20 988.26 185.42Q989.44 186.65 989.44 188.76L989.44 197.64L987.28 197.64L987.28 189.14Q987.28 187.63 986.52 186.83Q985.77 186.02 984.47 186.02Q983.13 186.02 982.35 186.86Q981.57 187.70 981.57 189.24" fill="white" fill-opacity="0.7"/>
<path d="M1004.80 197.64L1000.72 197.64Q998.97 197.64 997.92 196.62Q996.88 195.60 996.88 193.92L996.88 182.09L992.32 182.09L992.32 180.12L999.04 180.12L999.04 193.92Q999.04 194.74 999.50 195.20Q999.95 195.67 1000.72 195.67L1004.80 195.67" fill="white" fill-opacity="0.7"/>
<path d="M1013.20 197.83Q1010.82 197.83 1009.42 196.44Q1008.02 195.05 1008.02 192.55L1008.02 189.53Q1008.02 187.01 1009.41 185.63Q1010.80 184.25 1013.20 184.25Q1015.60 184.25 1016.99 185.63Q1018.38 187.01 1018.38 189.53L1018.38 192.55Q1018.38 195.05 1016.98 196.44Q1015.58 197.83 1013.20 197.83M1013.20 195.91Q1014.62 195.91 1015.42 195.12Q1016.22 194.33 1016.22 192.79L1016.22 189.29Q1016.22 187.75 1015.42 186.96Q1014.62 186.17 1013.20 186.17Q1011.81 186.17 1010.99 186.96Q1010.18 187.75 1010.18 189.29L1010.18 192.79Q1010.18 194.33 1010.99 195.12Q1011.81 195.91 1013.20 195.91" fill="white" fill-opacity="0.7"/>
<path d="M1026.45 197.88Q1024.41 197.88 1023.21 196.74Q1022.01 195.60 1022.01 193.75Q1022.01 192.53 1022.56 191.62Q1023.11 190.70 1024.10 190.19Q1025.08 189.67 1026.35 189.67L1030.43 189.67L1030.43 188.64Q1030.43 186.07 1027.62 186.07Q1026.38 186.07 1025.61 186.53Q1024.84 186.98 1024.79 187.80L1022.63 187.80Q1022.75 186.24 1024.08 185.22Q1025.42 184.20 1027.62 184.20Q1030.02 184.20 1031.31 185.35Q1032.59 186.50 1032.59 188.57L1032.59 197.64L1030.46 197.64L1030.46 195.24L1030.41 195.24Q1030.22 196.46 1029.18 197.17Q1028.15 197.88 1026.45 197.88M1026.98 196.06Q1028.56 196.06 1029.50 195.29Q1030.43 194.52 1030.43 193.20L1030.43 191.35L1026.59 191.35Q1025.54 191.35 1024.88 191.99Q1024.22 192.62 1024.22 193.68Q1024.22 194.78 1024.95 195.42Q1025.68 196.06 1026.98 196.06" fill="white" fill-opacity="0.7"/>
<path d="M1041.23 197.88Q1039.26 197.88 1038.08 196.56Q1036.89 195.24 1036.89 192.98L1036.89 189.12Q1036.89 186.84 1038.06 185.52Q1039.24 184.20 1041.23 184.20Q1042.72 184.20 1043.69 184.94Q1044.66 185.69 1044.86 186.96L1044.88 186.96L1044.83 183.96L1044.83 180.12L1046.99 180.12L1046.99 197.64L1044.83 197.64L1044.83 195.12L1044.81 195.12Q1044.64 196.42 1043.68 197.15Q1042.72 197.88 1041.23 197.88M1041.95 196.01Q1043.30 196.01 1044.06 195.17Q1044.83 194.33 1044.83 192.84L1044.83 189.24Q1044.83 187.75 1044.06 186.91Q1043.30 186.07 1041.95 186.07Q1040.58 186.07 1039.82 186.78Q1039.05 187.49 1039.05 189.12L1039.05 192.96Q1039.05 194.57 1039.82 195.29Q1040.58 196.01 1041.95 196.01" fill="white" fill-opacity="0.7"/>
<path d="M1055.25 197.88Q1053.21 197.88 1052.01 196.74Q1050.81 195.60 1050.81 193.75Q1050.81 192.53 1051.36 191.62Q1051.91 190.70 1052.90 190.19Q1053.88 189.67 1055.15 189.67L1059.23 189.67L1059.23 188.64Q1059.23 186.07 1056.42 186.07Q1055.18 186.07 1054.41 186.53Q1053.64 186.98 1053.59 187.80L1051.43 187.80Q1051.55 186.24 1052.88 185.22Q1054.22 184.20 1056.42 184.20Q1058.82 184.20 1060.11 185.35Q1061.39 186.50 1061.39 188.57L1061.39 197.64L1059.26 197.64L1059.26 195.24L1059.21 195.24Q1059.02 196.46 1057.98 197.17Q1056.95 197.88 1055.25 197.88M1055.78 196.06Q1057.36 196.06 1058.30 195.29Q1059.23 194.52 1059.23 193.20L1059.23 191.35L1055.39 191.35Q1054.34 191.35 1053.68 191.99Q1053.02 192.62 1053.02 193.68Q1053.02 194.78 1053.75 195.42Q1054.48 196.06 1055.78 196.06" fill="white" fill-opacity="0.7"/>
<path d="M1071.57 197.88Q1070.08 197.88 1069.12 197.15Q1068.16 196.42 1067.99 195.12L1067.97 195.12L1067.97 197.64L1065.81 197.64L1065.81 180.12L1067.97 180.12L1067.97 183.96L1067.92 186.96L1067.94 186.96Q1068.14 185.69 1069.11 184.94Q1070.08 184.20 1071.57 184.20Q1073.56 184.20 1074.74 185.52Q1075.91 186.84 1075.91 189.12L1075.91 192.98Q1075.91 195.24 1074.74 196.56Q1073.56 197.88 1071.57 197.88M1070.85 196.01Q1072.22 196.01 1072.98 195.29Q1073.75 194.57 1073.75 192.96L1073.75 189.12Q1073.75 187.49 1072.98 186.78Q1072.22 186.07 1070.85 186.07Q1069.53 186.07 1068.75 186.91Q1067.97 187.75 1067.97 189.24L1067.97 192.84Q1067.97 194.33 1068.75 195.17Q1069.53 196.01 1070.85 196.01" fill="white" fill-opacity="0.7"/>
<path d="M1091.20 197.64L1087.12 197.64Q1085.37 197.64 1084.32 196.62Q1083.28 195.60 1083.28 193.92L1083.28 182.09L1078.72 182.09L1078.72 180.12L1085.44 180.12L1085.44 193.92Q1085.44 194.74 1085.90 195.20Q1086.35 195.67 1087.12 195.67L1091.20 195.67" fill="white" fill-opacity="0.7"/>
<path d="M1099.60 197.88Q1097.27 197.88 1095.84 196.48Q1094.42 195.07 1094.42 192.60L1094.42 189.48Q1094.42 187.01 1095.84 185.60Q1097.27 184.20 1099.60 184.20Q1101.16 184.20 1102.32 184.82Q1103.49 185.45 1104.14 186.58Q1104.78 187.70 1104.78 189.24L1104.78 191.59L1096.53 191.59L1096.53 192.84Q1096.53 194.30 1097.37 195.16Q1098.21 196.01 1099.60 196.01Q1100.80 196.01 1101.58 195.54Q1102.36 195.07 1102.53 194.28L1104.69 194.28Q1104.47 195.94 1103.08 196.91Q1101.69 197.88 1099.60 197.88M1096.53 189.24L1096.53 189.91L1102.67 189.91L1102.67 189.24Q1102.67 187.68 1101.87 186.83Q1101.06 185.98 1099.60 185.98Q1098.14 185.98 1097.33 186.83Q1096.53 187.68 1096.53 189.24" fill="white" fill-opacity="0.7"/>
<path d="M1133.56 197.64L1129.72 197.64Q1128.09 197.64 1127.10 196.69Q1126.12 195.74 1126.12 194.16L1126.12 186.41L1122.33 186.41L1122.33 184.44L1126.12 184.44L1126.12 180.72L1128.28 180.72L1128.28 184.44L1133.68 184.44L1133.68 186.41L1128.28 186.41L1128.28 194.16Q1128.28 194.83 1128.68 195.25Q1129.07 195.67 1129.72 195.67L1133.56 195.67" fill="white" fill-opacity="0.7"/>
<path d="M1142.80 197.83Q1140.42 197.83 1139.02 196.44Q1137.62 195.05 1137.62 192.55L1137.62 189.53Q1137.62 187.01 1139.01 185.63Q1140.40 184.25 1142.80 184.25Q1145.20 184.25 1146.59 185.63Q1147.98 187.01 1147.98 189.53L1147.98 192.55Q1147.98 195.05 1146.58 196.44Q1145.18 197.83 1142.80 197.83M1142.80 195.91Q1144.22 195.91 1145.02 195.12Q1145.82 194.33 1145.82 192.79L1145.82 189.29Q1145.82 187.75 1145.02 186.96Q1144.22 186.17 1142.80 186.17Q1141.41 186.17 1140.59 186.96Q1139.78 187.75 1139.78 189.29L1139.78 192.79Q1139.78 194.33 1140.59 195.12Q1141.41 195.91 1142.80 195.91" fill="white" fill-opacity="0.7"/>
<path d="M76.74 229.64L72.21 229.64L72.21 212.12L76.74 212.12Q78.45 212.12 79.68 212.77Q80.92 213.42 81.60 214.59Q82.29 215.77 82.29 217.38L82.29 224.36Q82.29 225.97 81.60 227.16Q80.92 228.34 79.68 228.99Q78.45 229.64 76.74 229.64M74.37 214.04L74.37 227.72L76.74 227.72Q78.33 227.72 79.23 226.83Q80.13 225.94 80.13 224.36L80.13 217.38Q80.13 215.82 79.23 214.93Q78.33 214.04 76.74 214.04" fill="white" fill-opacity="0.7"/>
<path d="M97.72 229.64L86.44 229.64L86.44 227.67L91.12 227.67L91.12 218.41L86.92 218.41L86.92 216.44L93.28 216.44L93.28 227.67L97.72 227.67L97.72 229.64M91.96 214.06Q91.17 214.06 90.71 213.66Q90.26 213.25 90.26 212.55Q90.26 211.83 90.71 211.41Q91.17 210.99 91.96 210.99Q92.75 210.99 93.21 211.41Q93.66 211.83 93.66 212.55Q93.66 213.25 93.21 213.66Q92.75 214.06 91.96 214.06" fill="white" fill-opacity="0.7"/>
<path d="M106.36 233.96L102.66 233.96L102.66 231.99L106.38 231.99Q107.51 231.99 108.16 231.36Q108.81 230.72 108.81 229.64L108.81 228.44L108.86 226.28L108.78 226.28Q108.59 227.46 107.66 228.09Q106.72 228.73 105.30 228.73Q103.26 228.73 102.09 227.43Q100.91 226.14 100.91 223.88L100.91 221.10Q100.91 218.84 102.09 217.52Q103.26 216.20 105.30 216.20Q106.72 216.20 107.66 216.87Q108.59 217.54 108.78 218.72L108.83 218.72L108.83 216.44L110.97 216.44L110.97 229.64Q110.97 231.63 109.73 232.80Q108.50 233.96 106.36 233.96M105.95 226.93Q107.30 226.93 108.06 226.09Q108.83 225.25 108.83 223.76L108.83 221.24Q108.83 219.75 108.06 218.91Q107.30 218.07 105.95 218.07Q104.58 218.07 103.83 218.86Q103.07 219.66 103.07 221L103.07 224Q103.07 225.34 103.83 226.14Q104.58 226.93 105.95 226.93" fill="white" fill-opacity="0.7"/>
<path d="M126.52 229.64L115.24 229.64L115.24 227.67L119.92 227.67L119.92 218.41L115.72 218.41L115.72 216.44L122.08 216.44L122.08 227.67L126.52 227.67L126.52 229.64M120.76 214.06Q119.97 214.06 119.51 213.66Q119.06 213.25 119.06 212.55Q119.06 211.83 119.51 211.41Q119.97 210.99 120.76 210.99Q121.55 210.99 122.01 211.41Q122.46 211.83 122.46 212.55Q122.46 213.25 122.01 213.66Q121.55 214.06 120.76 214.06" fill="white" fill-opacity="0.7"/>
<path d="M140.80 229.64L130.72 229.64L130.72 212.12L132.88 212.12L132.88 227.67L140.80 227.67" fill="white" fill-opacity="0.7"/>
<path d="M149.20 229.83Q146.82 229.83 145.42 228.44Q144.02 227.05 144.02 224.55L144.02 221.53Q144.02 219.01 145.41 217.63Q146.80 216.25 149.20 216.25Q151.60 216.25 152.99 217.63Q154.38 219.01 154.38 221.53L154.38 224.55Q154.38 227.05 152.98 228.44Q151.58 229.83 149.20 229.83M149.20 227.91Q150.62 227.91 151.42 227.12Q152.22 226.33 152.22 224.79L152.22 221.29Q152.22 219.75 151.42 218.96Q150.62 218.17 149.20 218.17Q147.81 218.17 146.99 218.96Q146.18 219.75 146.18 221.29L146.18 224.79Q146.18 226.33 146.99 227.12Q147.81 227.91 149.20 227.91" fill="white" fill-opacity="0.7"/>
<path d="M163.79 229.88Q161.39 229.88 159.95 228.54Q158.51 227.19 158.51 224.84L158.51 221.24Q158.51 218.89 159.95 217.54Q161.39 216.20 163.79 216.20Q166.07 216.20 167.48 217.42Q168.88 218.65 168.95 220.76L166.79 220.76Q166.72 219.49 165.93 218.80Q165.14 218.12 163.79 218.12Q162.38 218.12 161.52 218.92Q160.67 219.73 160.67 221.22L160.67 224.84Q160.67 226.33 161.52 227.14Q162.38 227.96 163.79 227.96Q165.14 227.96 165.93 227.26Q166.72 226.57 166.79 225.32L168.95 225.32Q168.88 227.43 167.48 228.66Q166.07 229.88 163.79 229.88" fill="white" fill-opacity="0.7"/>
<path d="M175.29 229.64L173.13 229.64L173.13 212.12L175.29 212.12L175.29 221.89L177.81 221.89L181.50 216.44L183.98 216.44L179.73 222.73L184.22 229.64L181.70 229.64L177.86 223.76L175.29 223.76" fill="white" fill-opacity="0.7"/>
<path d="M192.40 229.88Q190.07 229.88 188.64 228.48Q187.22 227.07 187.22 224.60L187.22 221.48Q187.22 219.01 188.64 217.60Q190.07 216.20 192.40 216.20Q193.96 216.20 195.12 216.82Q196.29 217.45 196.94 218.58Q197.58 219.70 197.58 221.24L197.58 223.59L189.33 223.59L189.33 224.84Q189.33 226.30 190.17 227.16Q191.01 228.01 192.40 228.01Q193.60 228.01 194.38 227.54Q195.16 227.07 195.33 226.28L197.49 226.28Q197.27 227.94 195.88 228.91Q194.49 229.88 192.40 229.88M189.33 221.24L189.33 221.91L195.47 221.91L195.47 221.24Q195.47 219.68 194.67 218.83Q193.86 217.98 192.40 217.98Q190.94 217.98 190.13 218.83Q189.33 219.68 189.33 221.24" fill="white" fill-opacity="0.7"/>
<path d="M204.45 229.64L202.29 229.64L202.29 216.44L204.45 216.44L204.45 218.96L204.50 218.96Q204.66 217.69 205.58 216.94Q206.49 216.20 208.02 216.20Q210.09 216.20 211.20 217.44Q212.32 218.67 212.32 220.95L212.32 222.08L210.16 222.08L210.16 220.95Q210.16 218.07 207.35 218.07Q205.94 218.07 205.19 218.89Q204.45 219.70 204.45 221.24" fill="white" fill-opacity="0.7"/>
<path d="M221.20 229.88Q220.31 229.88 219.77 229.35Q219.23 228.82 219.23 227.98Q219.23 227.10 219.77 226.54Q220.31 225.99 221.20 225.99Q222.09 225.99 222.63 226.54Q223.17 227.10 223.17 227.98Q223.17 228.82 222.63 229.35Q222.09 229.88 221.20 229.88" fill="white" fill-opacity="0.7"/>
<path d="M76.11 136.06L66.42 136.06L84.56 65.98L97.14 65.98L115.18 136.06L105.49 136.06L101.07 117.82L80.53 117.82L76.11 136.06M87.54 88.92L82.45 109.95L99.15 109.95L94.16 89.02Q92.72 83.26 91.86 79.23Q90.99 75.20 90.80 73.76Q90.61 75.20 89.74 79.23Q88.88 83.26 87.54 88.92M137.55 136.06L128.05 136.06L128.05 65.98L150.80 65.98Q157.52 65.98 162.42 68.57Q167.31 71.16 170 75.82Q172.69 80.48 172.69 86.91Q172.69 93.24 170 97.90Q167.31 102.56 162.37 105.15Q157.42 107.74 150.80 107.74L137.55 107.74L137.55 136.06M137.55 74.43L137.55 99.29L150.80 99.29Q156.37 99.29 159.63 95.88Q162.90 92.48 162.90 86.91Q162.90 81.24 159.63 77.84Q156.37 74.43 150.80 74.43L137.55 74.43M225.10 136.06L186.90 136.06L186.90 127.42L201.20 127.42L201.20 74.62L186.90 74.62L186.90 65.98L225.10 65.98L225.10 74.62L210.80 74.62L210.80 127.42L225.10 127.42L225.10 136.06M263.98 137.02Q253.62 137.02 247.47 131.60Q241.33 126.17 241.33 116.67L250.83 116.67Q250.83 122.24 254.38 125.40Q257.94 128.57 263.98 128.57Q269.74 128.57 273.15 125.36Q276.56 122.14 276.56 116.76Q276.56 112.73 274.35 109.71Q272.14 106.68 268.11 105.63L257.74 102.84Q250.93 100.92 246.94 95.88Q242.96 90.84 242.96 83.93Q242.96 78.27 245.50 74Q248.05 69.72 252.66 67.37Q257.26 65.02 263.31 65.02Q269.46 65.02 274.11 67.37Q278.77 69.72 281.36 73.95Q283.95 78.17 283.95 83.74L274.54 83.74Q274.54 79.13 271.42 76.25Q268.30 73.37 263.31 73.37Q258.32 73.37 255.30 76.25Q252.27 79.13 252.27 83.74Q252.27 87.48 254.29 90.03Q256.30 92.57 259.95 93.63L270.61 96.51Q277.81 98.43 281.84 103.85Q285.87 109.28 285.87 116.76Q285.87 122.91 283.18 127.47Q280.50 132.03 275.55 134.52Q270.61 137.02 263.98 137.02M342.51 136.06L301.71 136.06L301.71 65.98L342.51 65.98L342.51 74.52L311.12 74.52L311.12 95.36L339.15 95.36L339.15 103.61L311.12 103.61L311.12 127.52L342.51 127.52L342.51 136.06M383.60 136.06L374.10 136.06L374.10 74.62L355.09 74.62L355.09 65.98L402.51 65.98L402.51 74.62L383.60 74.62L383.60 136.06M436.40 137.02Q426.51 137.02 421.18 131.55Q415.86 126.08 415.86 116.67L415.86 65.98L425.36 65.98L425.36 116.67Q425.36 122.24 428.10 125.40Q430.83 128.57 436.40 128.57Q441.87 128.57 444.70 125.40Q447.54 122.24 447.54 116.67L447.54 65.98L457.04 65.98L457.04 116.67Q457.04 126.17 451.71 131.60Q446.38 137.02 436.40 137.02M551.98 137.02Q542.29 137.02 536.58 131.60Q530.86 126.17 530.86 116.67L530.86 85.28Q530.86 75.87 536.58 70.44Q542.29 65.02 551.98 65.02Q561.58 65.02 567.30 70.49Q573.01 75.96 573.01 85.28L563.50 85.28Q563.50 79.61 560.43 76.54Q557.36 73.47 551.98 73.47Q546.51 73.47 543.44 76.54Q540.37 79.61 540.37 85.28L540.37 116.67Q540.37 122.43 543.44 125.50Q546.51 128.57 551.98 128.57Q557.36 128.57 560.43 125.50Q563.50 122.43 563.50 116.67L563.50 107.55L549.87 107.55L549.87 99.10L573.01 99.10L573.01 116.67Q573.01 126.08 567.30 131.55Q561.58 137.02 551.98 137.02M609.20 137.02Q599.60 137.02 594.03 131.45Q588.46 125.88 588.46 115.71L588.46 86.24Q588.46 76.16 594.03 70.59Q599.60 65.02 609.20 65.02Q618.80 65.02 624.37 70.54Q629.94 76.06 629.94 86.24L629.94 115.71Q629.94 125.88 624.37 131.45Q618.80 137.02 609.20 137.02M609.20 128.57Q614.58 128.57 617.50 125.50Q620.43 122.43 620.43 116.67L620.43 85.28Q620.43 79.61 617.55 76.54Q614.67 73.47 609.20 73.47Q603.73 73.47 600.85 76.54Q597.97 79.61 597.97 85.28L597.97 116.67Q597.97 122.43 600.90 125.50Q603.82 128.57 609.20 128.57M673.14 136.06L660.37 136.06L642.42 65.98L652.21 65.98L663.82 113.21Q664.98 117.72 665.79 121.90Q666.61 126.08 666.99 128.28Q667.28 126.08 668.19 121.85Q669.10 117.63 670.16 113.12L681.39 65.98L691.18 65.98L673.14 136.06M782.77 137.02Q773.07 137.02 767.36 131.60Q761.65 126.17 761.65 116.67L761.65 85.28Q761.65 75.87 767.36 70.44Q773.07 65.02 782.77 65.02Q792.37 65.02 798.08 70.49Q803.79 75.96 803.79 85.28L794.29 85.28Q794.29 79.61 791.22 76.54Q788.14 73.47 782.77 73.47Q777.30 73.47 774.22 76.54Q771.15 79.61 771.15 85.28L771.15 116.67Q771.15 122.43 774.22 125.50Q777.30 128.57 782.77 128.57Q788.14 128.57 791.22 125.50Q794.29 122.43 794.29 116.67L803.79 116.67Q803.79 126.08 798.08 131.55Q792.37 137.02 782.77 137.02M828.85 136.06L819.34 136.06L819.34 65.98L828.85 65.98L828.85 95.55L850.35 95.55L850.35 65.98L859.86 65.98L859.86 136.06L850.35 136.06L850.35 104.19L828.85 104.19L828.85 136.06M918.51 136.06L877.71 136.06L877.71 65.98L918.51 65.98L918.51 74.52L887.12 74.52L887.12 95.36L915.15 95.36L915.15 103.61L887.12 103.61L887.12 127.52L918.51 127.52L918.51 136.06M943.18 136.06L934.26 136.06L934.26 65.98L946.54 65.98L967.47 125.12Q967.18 122.62 966.94 118.92Q966.70 115.23 966.56 111.24Q966.42 107.26 966.42 103.71L966.42 65.98L975.44 65.98L975.44 136.06L963.06 136.06L942.32 76.92Q942.51 79.42 942.70 83.02Q942.90 86.62 943.04 90.56Q943.18 94.49 943.18 97.95L943.18 136.06M1000.78 136.06L991.86 136.06L991.86 65.98L1004.14 65.98L1025.07 125.12Q1024.78 122.62 1024.54 118.92Q1024.30 115.23 1024.16 111.24Q1024.02 107.26 1024.02 103.71L1024.02 65.98L1033.04 65.98L1033.04 136.06L1020.66 136.06L999.92 76.92Q1000.11 79.42 1000.30 83.02Q1000.50 86.62 1000.64 90.56Q1000.78 94.49 1000.78 97.95L1000.78 136.06M1055.31 136.06L1045.62 136.06L1063.76 65.98L1076.34 65.98L1094.38 136.06L1084.69 136.06L1080.27 117.82L1059.73 117.82L1055.31 136.06M1066.74 88.92L1061.65 109.95L1078.35 109.95L1073.36 89.02Q1071.92 83.26 1071.06 79.23Q1070.19 75.20 NaN 73.76Q1069.81 75.20 1068.94 79.23Q1068.08 83.26 1066.74 88.92M1146.70 136.06L1108.50 136.06L1108.50 127.42L1122.80 127.42L1122.80 74.62L1108.50 74.62L1108.50 65.98L1146.70 65.98L1146.70 74.62L1132.40 74.62L1132.40 127.42L1146.70 127.42L1146.70 136.06M1185.97 137.02Q1176.27 137.02 1170.56 131.60Q1164.85 126.17 1164.85 116.67L1164.85 85.28Q1164.85 75.87 1170.56 70.44Q1176.27 65.02 1185.97 65.02Q1195.57 65.02 1201.28 70.49Q1206.99 75.96 1206.99 85.28L1197.49 85.28Q1197.49 79.61 1194.42 76.54Q1191.34 73.47 1185.97 73.47Q1180.50 73.47 1177.42 76.54Q1174.35 79.61 1174.35 85.28L1174.35 116.67Q1174.35 122.43 1177.42 125.50Q1180.50 128.57 1185.97 128.57Q1191.34 128.57 1194.42 125.50Q1197.49 122.43 1197.49 116.67L1206.99 116.67Q1206.99 126.08 1201.28 131.55Q1195.57 137.02 1185.97 137.02M1242.80 137.02Q1233.20 137.02 1227.63 131.45Q1222.06 125.88 1222.06 115.71L1222.06 86.24Q1222.06 76.16 1227.63 70.59Q1233.20 65.02 1242.80 65.02Q1252.40 65.02 1257.97 70.54Q1263.54 76.06 1263.54 86.24L1263.54 115.71Q1263.54 125.88 1257.97 131.45Q1252.40 137.02 1242.80 137.02M1242.80 128.57Q1248.18 128.57 1251.10 125.50Q1254.03 122.43 1254.03 116.67L1254.03 85.28Q1254.03 79.61 1251.15 76.54Q1248.27 73.47 1242.80 73.47Q1237.33 73.47 1234.45 76.54Q1231.57 79.61 1231.57 85.28L1231.57 116.67Q1231.57 122.43 1234.50 125.50Q1237.42 128.57 1242.80 128.57M1289.55 136.06L1280.14 136.06L1280.14 65.98L1301.84 65.98Q1308.27 65.98 1313.07 68.52Q1317.87 71.07 1320.56 75.63Q1323.25 80.19 1323.25 86.33Q1323.25 93.44 1319.65 98.52Q1316.05 103.61 1310.10 105.72L1324.21 136.06L1313.74 136.06L1300.40 106.78L1289.55 106.78L1289.55 136.06M1289.55 74.43L1289.55 98.33L1301.84 98.33Q1307.22 98.33 1310.34 95.07Q1313.46 91.80 1313.46 86.43Q1313.46 80.96 1310.29 77.69Q1307.12 74.43 1301.84 74.43L1289.55 74.43M1347.15 136.06L1337.65 136.06L1337.65 65.98L1360.40 65.98Q1367.12 65.98 1372.02 68.57Q1376.91 71.16 1379.60 75.82Q1382.29 80.48 1382.29 86.91Q1382.29 93.24 1379.60 97.90Q1376.91 102.56 1371.97 105.15Q1367.02 107.74 1360.40 107.74L1347.15 107.74L1347.15 136.06M1347.15 74.43L1347.15 99.29L1360.40 99.29Q1365.97 99.29 1369.23 95.88Q1372.50 92.48 1372.50 86.91Q1372.50 81.24 1369.23 77.84Q1365.97 74.43 1360.40 74.43" fill="url(#paint2_linear_0_1)"/>
<g id="Group 1">
<rect id="Rectangle 1" x="26" y="168" width="12" height="184" rx="5" fill="url(#paint3_linear_0_1)" fill-opacity="0.9"/>
</g>
<g id="Group 1_2">
<rect id="Rectangle 2" x="26" y="38" width="12" height="119" rx="5" fill="url(#paint4_linear_0_1)" fill-opacity="0.9"/>
</g>
<ellipse id="Ellipse 1" cx="148.5" cy="573" rx="215.5" ry="214" fill="url(#paint5_linear_0_1)" fill-opacity="0.4"/>
<rect id="Rectangle 3" x="1229" y="48" width="300" height="300" rx="25" fill="#FFFBFB" fill-opacity="0.9"/>
<g id="placeholder-logo"><g transform="translate(1229,48) translate(0.0,60.0) scale(1.2000)"><g fill="#666666">
  <path d="m88.05,27.65c-3.15,4 -3.2,51.2 -0.05,54.35c2.75,2.75 71.7,3.15 74.45,0.45c2.85,-2.9 2.3,-53.85 -0.65,-55.9c-1.95,-1.35 -7.15,-1.55 -36.95,-1.55l-34.7,0l-2.1,2.65zm69.45,3.35c0.65,0 1,8.6 1,23.75l0,23.75l-33,0l-33,0l-0.25,-23c-0.15,-12.6 -0.1,-23.45 0.15,-24.1c0.35,-0.85 8.9,-1.05 32.25,-0.75c17.55,0.2 32.3,0.35 32.85,0.35z"/>
  <path d="m99.15,37.3c-6.85,7.35 4.25,17.35 11.4,10.25c1.35,-1.35 2.45,-3.65 2.45,-5.05c0,-6.45 -9.35,-9.95 -13.85,-5.2z"/>
  <path d="m135,42.5c-0.7,0.85 -5.25,5.15 -10.1,9.6l-8.85,8.1l-3.2,-3.2l-3.15,-3.15l-6.35,6.3c-5.55,5.5 -6.35,6.75 -6.35,10.05l0,3.8l28.5,0l28.5,0l0,-8.6l0,-8.55l-8.15,-7.7c-9.35,-8.85 -9.15,-8.7 -10.85,-6.65zm7.25,15.2c0.95,0.9 1.75,2.9 1.75,4.45c6.35,-5.05 4.75,-7.15 4.9,-11.55c0.95,0 0,0 0,0l-6.65,7.1z"/>
  <path d="m53.65,110.75c0.1,4.8 0.45,8.65 0.75,8.5c0.35,-0.15 1.3,-0.25 2.1,-0.25c1.1,0 1.5,-1.2 1.5,-4.75l0,-4.75l3.25,5c4.9,7.5 6.2,6.75 6.55,-3.75c0.25,-8.15 0.15,-8.75 -1.7,-8.75c-1.65,0 -2.05,0.8 -2.3,4.75l-0.3,4.75l-2.8,-4.75c-4.85,-8.25 -7.25,-6.9 -7.05,4z"/>
  <path d="m91,108.9c0,9.65 0.3,10.1 6.1,10.1c5.8,0 7.15,-2.65 1.65,-3.2l-3.25,-0.3l-0.3,-6.75c-0.25,-5.95 -0.55,-6.75 -2.25,-6.75c-1.75,0 -1.95,0.7 -1.95,6.9z"/>
  <path d="m151,102.45c0,0.25 1,2.15 2.25,4.2c1.2,2.1 2.45,5.8 2.75,8.25c0.65,5.9 4,6.95 4,1.25c0.05,-2.1 1.25,-5.85 2.95,-8.9l2.9,-5.25l-2.5,0c-1.8,0 -2.8,0.85 -3.75,3.1l-1.3,3.05l-1.25,-3.05c-1.1,-2.6 -6.05,-4.8 -6.05,-2.65z"/>
  <path d="m191,107.45c0,9.05 3.4,8.85 4.25,-0.2c0.45,-5 0.35,-5.25 -1.9,-5.25c-2.2,0 -2.35,0.4 -2.35,5.45z"/>
  <path d="m180.8,104.75c-1.3,5.35 0.65,13.6 3.45,14.35c2.3,0.6 2.75,0.4 2.75,-1.2c0,-1.05 -0.45,-1.9 -1,-1.9c-0.55,0 -1,-1.6 -1,-3.5c0,-1.95 0.45,-3.5 1,-3.5c0.55,0 1,-0.7 1,-1.5c0,-0.85 -0.45,-1.5 -1,-1.5c-0.55,0 -1,-0.7 -1,-1.5c0,-2.1 -3.65,-1.9 -4.2,0.25z"/>
  <path d="m71.55,106.55c-2.2,2.25 -2.05,9.7 0.3,11.8c4.5,4.1 10.15,0.75 10.15,-6.1c0,-4.85 -2,-7.25 -6,-7.25c-1.55,0 -3.55,0.7 -4.45,1.55zm6.25,5.8c0.25,3.05 0,3.65 -1.6,3.65c-2.3,0 -3.25,-2.65 -2.05,-5.85c1.25,-3.35 3.3,-2.1 3.65,2.2z"/>
  <path d="m105.75,106.1c-2.5,1.45 -2.45,9.95 0.1,12.25c4.3,3.9 10.15,0.35 10.15,-6.2c0,-6 -5.15,-9.05 -10.25,-6.05zm6.05,6.25c0.25,3.05 0,3.65 -1.6,3.65c-2.3,0 -3.25,-2.65 -2.05,-5.85c1.25,-3.35 3.3,-2.1 3.65,2.2z"/>
  <path d="m119.2,106.2c-3.8,3.8 -0.4,12.55 4.4,11.35c1.9,-0.45 2.45,-0.3 2.15,0.65c-0.25,0.7 -1.55,1.2 -2.85,1.1c-4.05,-0.3 -5.35,0.45 -3.85,2.25c0.85,1.05 2.6,1.45 5.35,1.25l4.1,-0.3l0.3,-8.75l0.3,-8.75l-4.35,0c-2.4,0 -4.9,0.55 -5.55,1.2zm6.6,4.45c0.4,2.85 -2.15,4.85 -3.75,2.95c-0.9,-1.1 -0.9,-2 -0.05,-3.6c1.35,-2.5 3.4,-2.15 3.8,0.65z"/>
  <path d="m133.55,106.55c-2.2,2.25 -2.05,9.7 0.3,11.8c4.5,4.1 10.15,0.75 10.15,-6.1c0,-4.85 -2,-7.25 -6,-7.25c-1.55,0 -3.55,0.7 -4.45,1.55zm6.25,5.8c0.25,3.05 0,3.65 -1.6,3.65c-2.3,0 -3.25,-2.65 -2.05,-5.85c1.25,-3.35 3.3,-2.1 3.65,2.2z"/>
  <path d="m167.65,106.85c-3.9,4.3 -0.75,13.15 4.7,13.15c2.4,0 5.65,-2.75 5.65,-4.85c0,-1.4 -2.65,-1.55 -3.5,-0.15c-0.95,1.55 -4.5,1.15 -4.5,-0.5c0,-1.1 1.1,-1.5 4,-1.5c3.15,0 4,-0.35 4,-1.8c0,-5.3 -6.85,-8.25 -10.35,-4.35z"/>
  <path d="m191,117.5c0,2.15 0.4,2.6 2.25,2.3c1.5,-0.2 2.25,-1 2.25,-2.3c0,-1.3 -0.75,-2.1 -2.25,-2.3c-1.85,-0.3 -2.25,0.15 -2.25,2.3z"/>
 </g></g></g>
</g>
<defs>
<linearGradient id="paint0_linear_0_1" x1="0" y1="198" x2="1584" y2="198" gradientUnits="userSpaceOnUse">
<stop stop-color="#3D052C"/>
<stop offset="1"/>
</linearGradient>
<linearGradient id="paint1_linear_0_1" x1="323" y1="-224" x2="323" y2="352" gradientUnits="userSpaceOnUse">
<stop stop-color="#28F6F2" stop-opacity="0.4"/>
<stop offset="1" stop-color="#17908E" stop-opacity="0.7"/>
</linearGradient>
<linearGradient id="paint2_linear_0_1" x1="148.5" y1="38" x2="148.5" y2="140" gradientUnits="userSpaceOnUse">
<stop stop-color="white"/>
<stop offset="1" stop-color="#999999"/>
</linearGradient>
<linearGradient id="paint3_linear_0_1" x1="38" y1="260" x2="26" y2="260" gradientUnits="userSpaceOnUse">
<stop stop-color="#D9D9D9"/>
<stop offset="1" stop-color="#737373"/>
</linearGradient>
<linearGradient id="paint4_linear_0_1" x1="38" y1="97.5" x2="26" y2="97.5" gradientUnits="userSpaceOnUse">
<stop stop-color="#D9D9D9"/>
<stop offset="1" stop-color="#737373"/>
</linearGradient>
<linearGradient id="paint5_linear_0_1" x1="27.5" y1="434.5" x2="148.5" y2="787" gradientUnits="userSpaceOnUse">
<stop stop-color="#2E21BC"/>
<stop offset="1" stop-color="#150F56"/>
</linearGradient>
<clipPath id="clip0_0_1">
<rect width="1584" height="396" fill="white"/>
</clipPath>
</defs>
</svg>
